# xmcd
#
# Track frame offsets: 
#        182
#        18257
#        29562
#        40850
#        52080
#        63965
#        76982
#        90920
#        108755
#        121257
#        138905
#        154230
#
# Disc length: 2231 seconds
#
# Revision: 3
# Processed by: cddbd v1.5.2PL0 Copyright (c) Steve Scherf et al.
# Submitted via: ExactAudioCopy v0.95b4
#
DISCID=8e08b50c
DTITLE=Willie Nelson - Six Hours At Pedernales
DYEAR=1994
DGENRE=Country
TTITLE0=Nothing's Changed, Nothing's New
TTITLE1=Chase The Moon
TTITLE2=Are You Sure
TTITLE3=The Party's Over
TTITLE4=We're Not Talking Anymore
TTITLE5=Turn Me Loose And Let Me Swing
TTITLE6=Once You're Past The Blues
TTITLE7=It Won't Be Easy
TTITLE8=Stray Cats, Cowbowys, and Girls Of The Night
TTITLE9=The Best Worst Thing
TTITLE10=It Should Be Easier Now
TTITLE11=My Own Peculiar Way
EXTD=
EXTT0=
EXTT1=
EXTT2=
EXTT3=
EXTT4=
EXTT5=
EXTT6=
EXTT7=
EXTT8=
EXTT9=
EXTT10=
EXTT11=
PLAYORDER=
